HIERARCHY
ROOT hip
{
  OFFSET 0 0 0
  CHANNELS 6 Xposition Yposition Zposition Zrotation Yrotation Xrotation
  JOINT abdomen
  {
    OFFSET 0 20.6881 -0.73152
    CHANNELS 3 Zrotation Xrotation Yrotation
    JOINT chest
    {
      OFFSET 0 11.7043 -0.48768
      CHANNELS 3 Zrotation Xrotation Yrotation
      JOINT neck
      {
        OFFSET 0 22.1894 -2.19456
        CHANNELS 3 Zrotation Xrotation Yrotation
        JOINT head
        {
          OFFSET -0.24384 7.07133 1.2192
          CHANNELS 3 Zrotation Xrotation Yrotation
          JOINT leftEye
          {
            OFFSET 4.14528 8.04674 8.04672
            CHANNELS 3 Zrotation Xrotation Yrotation
            End Site
            {
              OFFSET 1 0 0
            }
          }
          JOINT rightEye
          {
            OFFSET -3.6576 8.04674 8.04672
            CHANNELS 3 Zrotation Xrotation Yrotation
            End Site
            {
              OFFSET 1 0 0
            }
          }
        }
      }
      JOINT rCollar
      {
        OFFSET -2.68224 19.2634 -4.8768
        CHANNELS 3 Zrotation Xrotation Yrotation
        JOINT rShldr
        {
          OFFSET -8.77824 -1.95073 1.46304
          CHANNELS 3 Zrotation Xrotation Yrotation
          JOINT rForeArm
          {
            OFFSET -28.1742 -1.7115 0.48768
            CHANNELS 3 Zrotation Xrotation Yrotation
            JOINT rHand
            {
              OFFSET -22.5879 0.773209 7.07136
              CHANNELS 3 Zrotation Xrotation Yrotation
              JOINT rThumb1
              {
                OFFSET -1.2192 -0.487915 3.41376
                CHANNELS 3 Zrotation Xrotation Yrotation
                JOINT rThumb2
                {
                  OFFSET -3.37035 -0.52449 3.41376
                  CHANNELS 3 Zrotation Xrotation Yrotation
                  End Site
                  {
                    OFFSET -1.78271 -1.18214 1.43049
                  }
                }
              }
              JOINT rIndex1
              {
                OFFSET -7.75947 0.938293 5.60832
                CHANNELS 3 Zrotation Xrotation Yrotation
                JOINT rIndex2
                {
                  OFFSET -2.54057 -0.884171 1.56538
                  CHANNELS 3 Zrotation Xrotation Yrotation
                  End Site
                  {
                    OFFSET -1.62519 -0.234802 1.16502
                  }
                }
              }
              JOINT rMid1
              {
                OFFSET -8.24714 1.18213 3.41376
                CHANNELS 3 Zrotation Xrotation Yrotation
                JOINT rMid2
                {
                  OFFSET -3.10165 -0.590103 1.0647
                  CHANNELS 3 Zrotation Xrotation Yrotation
                  End Site
                  {
                    OFFSET -2.48547 -0.328903 0.83742
                  }
                }
              }
              JOINT rRing1
              {
                OFFSET -8.82822 0.546677 1.51678
                CHANNELS 3 Zrotation Xrotation Yrotation
                JOINT rRing2
                {
                  OFFSET -2.60934 -0.819778 -0.0198488
                  CHANNELS 3 Zrotation Xrotation Yrotation
                  End Site
                  {
                    OFFSET -2.33842 -0.294052 0.168128
                  }
                }
              }
              JOINT rPinky1
              {
                OFFSET -8.27202 -0.0477905 -0.4584
                CHANNELS 3 Zrotation Xrotation Yrotation
                JOINT rPinky2
                {
                  OFFSET -1.82734 -0.647385 -0.700984
                  CHANNELS 3 Zrotation Xrotation Yrotation
                  End Site
                  {
                    OFFSET -1.69225 -0.51767 -0.607171
                  }
                }
              }
            }
          }
        }
      }
      JOINT lCollar
      {
        OFFSET 2.68224 19.2634 -4.8768
        CHANNELS 3 Zrotation Xrotation Yrotation
        JOINT lShldr
        {
          OFFSET 8.77824 -1.95073 1.46304
          CHANNELS 3 Zrotation Xrotation Yrotation
          JOINT lForeArm
          {
            OFFSET 28.1742 -1.7115 0.48768
            CHANNELS 3 Zrotation Xrotation Yrotation
            JOINT lHand
            {
              OFFSET 22.5879 0.773209 7.07136
              CHANNELS 3 Zrotation Xrotation Yrotation
              JOINT lThumb1
              {
                OFFSET 1.2192 -0.487915 3.41376
                CHANNELS 3 Zrotation Xrotation Yrotation
                JOINT lThumb2
                {
                  OFFSET 3.37035 -0.52449 3.41376
                  CHANNELS 3 Zrotation Xrotation Yrotation
                  End Site
                  {
                    OFFSET 1.78271 -1.18214 1.43049
                  }
                }
              }
              JOINT lIndex1
              {
                OFFSET 7.75947 0.938293 5.60832
                CHANNELS 3 Zrotation Xrotation Yrotation
                JOINT lIndex2
                {
                  OFFSET 2.54057 -0.884171 1.56538
                  CHANNELS 3 Zrotation Xrotation Yrotation
                  End Site
                  {
                    OFFSET 1.62519 -0.234802 1.16502
                  }
                }
              }
              JOINT lMid1
              {
                OFFSET 8.24714 1.18213 3.41376
                CHANNELS 3 Zrotation Xrotation Yrotation
                JOINT lMid2
                {
                  OFFSET 3.10165 -0.590103 1.0647
                  CHANNELS 3 Zrotation Xrotation Yrotation
                  End Site
                  {
                    OFFSET 2.48547 -0.328903 0.83742
                  }
                }
              }
              JOINT lRing1
              {
                OFFSET 8.82822 0.546677 1.51678
                CHANNELS 3 Zrotation Xrotation Yrotation
                JOINT lRing2
                {
                  OFFSET 2.60934 -0.819778 -0.0198488
                  CHANNELS 3 Zrotation Xrotation Yrotation
                  End Site
                  {
                    OFFSET 2.33842 -0.294052 0.168128
                  }
                }
              }
              JOINT lPinky1
              {
                OFFSET 8.27202 -0.0477905 -0.4584
                CHANNELS 3 Zrotation Xrotation Yrotation
                JOINT lPinky2
                {
                  OFFSET 1.82734 -0.647385 -0.700984
                  CHANNELS 3 Zrotation Xrotation Yrotation
                  End Site
                  {
                    OFFSET 1.69225 -0.51767 -0.607171
                  }
                }
              }
            }
          }
        }
      }
    }
  }
  JOINT rButtock
  {
    OFFSET -8.77824 4.35084 1.2192
    CHANNELS 3 Zrotation Xrotation Yrotation
    JOINT rThigh
    {
      OFFSET 0 -1.70687 -2.19456
      CHANNELS 3 Zrotation Xrotation Yrotation
      JOINT rShin
      {
        OFFSET 0 -36.8199 0.73152
        CHANNELS 3 Zrotation Xrotation Yrotation
        JOINT rFoot
        {
          OFFSET 0.73152 -45.1104 -5.12064
          CHANNELS 3 Zrotation Xrotation Yrotation
          End Site
          {
            OFFSET -1.1221 -3.69964 12.103
          }
        }
      }
    }
  }
  JOINT lButtock
  {
    OFFSET 8.77824 4.35084 1.2192
    CHANNELS 3 Zrotation Xrotation Yrotation
    JOINT lThigh
    {
      OFFSET 0 -1.70687 -2.19456
      CHANNELS 3 Zrotation Xrotation Yrotation
      JOINT lShin
      {
        OFFSET 0 -36.8199 0.73152
        CHANNELS 3 Zrotation Xrotation Yrotation
        JOINT lFoot
        {
          OFFSET -0.73152 -45.1104 -5.12064
          CHANNELS 3 Zrotation Xrotation Yrotation
          End Site
          {
            OFFSET 1.1221 -3.69964 12.103
          }
        }
      }
    }
  }
}
MOTION
Frames:	4
Frame Time:	0.03333
0.010004483163356781 -0.335491806268692 0.07672633975744247 -19.93308573961258 -2.7804170921444893 3.0778442323207855 -1.8228998221457005 14.017264544963837 4.172636456787586 2.4876975640654564 -9.540791809558868 1.331385187804699 -4.706136547029018 14.899074286222458 -3.2667719945311546 8.235453888773918 -23.695213794708252 -4.673863537609577 -0.10805281111970544 0.01799532794393599 -0.0135487545048818 0.006440235301852226 0.0008726870873942971 0.0916677515488118 0.004625102737918496 0.06846135249361396 -0.058742567198351026 44.70131993293762 27.455880045890808 12.255206108093262 -23.504176139831543 -28.162829875946045 62.41724610328674 -4.773469381034374 -10.7460518181324 -4.709631130099297 0.02611144882394001 0.054155958350747824 0.06721638841554523 -0.08735613198950887 -0.062038766336627305 -0.09558909921906888 0.018950568919535726 0.0012082408647984266 0.006653743330389261 7.719909176230431 5.516386292874813 0.3876421507447958 0.005345106255845167 -0.05200152634643018 0.06254483945667744 2.946328818798065 1.033564768731594 0.091637063305825 0.020175890531390905 0.05135660176165402 -0.018242484075017273 10.236015692353249 0.7214402128010988 0.03273449605330825 0.002156307455152273 0.04584133566822857 0.05424769304227084 2.2214091941714287 -0.790479015558958 -0.20874878391623497 0.010111520678037778 0.05076659959740937 0.024299153010360897 -52.159738540649414 28.403705656528473 -25.042637586593628 22.128583788871765 -24.945128560066223 -57.052382826805115 5.37656307220459 -12.300992757081985 3.929811045527458 -0.016797509451862425 -0.004626805312000215 0.0303633080329746 0.0021779948110633995 0.02319890249054879 -0.03708574105985463 0.007583013502880931 0.01096202846383676 -0.01601825177203864 -7.709152847528458 5.435844585299492 -0.39154086727648973 -0.0036378186632646248 0.0025637727230787277 0.009388737380504608 -2.9720381274819374 0.9937757067382336 -0.1418769860174507 -0.20648525096476078 -0.010982091334881261 -0.019190228485967964 -10.2719197422266 0.7624239474534988 -0.010459432523930445 -0.018917263951152563 0.013386563368840143 0.006340522086247802 -2.1243833005428314 -0.752183273434639 0.20299548748880625 -0.05241954233497381 -0.049312617047689855 -0.0890842080116272 -31.597586274147034 -31.713540852069855 -26.830185055732727 -20.34478336572647 58.38164269924164 20.50526797771454 -4.737878814339638 -10.167033970355988 -9.977684766054153 -0.057810751022771 0.011661342432489619 -0.05335901747457683 37.03766405582428 -31.887683272361755 29.78130966424942 21.142382472753525 59.49026942253113 -18.608746379613876 5.06851002573967 -10.0680872797966 12.600458711385727
0.008836129680275917 -0.9776468873023987 0.195140041410923 -21.638773530721664 -1.8233267962932587 5.2765823900699615 -2.289284337311983 14.399488717317581 4.531745687127113 2.6867104321718216 -9.743705615401268 1.3700809143483639 -4.812411032617092 15.167836993932724 -3.5130339860916138 8.654643595218658 -24.6243417263031 -4.924809671938419 -0.08990796050056815 0.06707907188683748 -0.08410787209868431 -0.01242194906808436 0.00140476506203413 0.08794498164206743 0.1075694162864238 0.12384405476041138 -0.04301062552258372 50.01574158668518 30.98368763923645 12.853643149137497 -23.937546014785767 -30.701216161251068 67.44460701942444 -5.696707516908646 -14.044283777475357 -6.202361583709717 -0.005210932285990566 0.05983967974316329 -0.06107069319114089 -0.1285529346205294 -0.05634952860418707 -0.10808740742504597 -0.007291365182027221 -0.0668847217457369 -0.004759328439831734 7.708685472607613 5.494995675981045 0.35034687258303165 -0.007176986910053529 -0.061379613471217453 0.1512553822249174 2.989411801099777 1.0618795081973076 0.08211561944335699 0.025339876301586628 0.04480768460780382 -0.021246424585115165 10.215161517262459 0.6424762727692723 0.051755517488345504 0.02368358604144305 0.07599390170071274 0.11223408160731196 2.1883041970431805 -0.7502096705138683 -0.2217432064935565 -0.027894358208868653 0.04302646731957793 0.0909148994833231 -58.50323796272278 30.803314447402954 -24.862889349460602 22.689978182315826 -27.18562602996826 -61.033644676208496 6.456530392169952 -11.713182628154755 4.161665216088295 -0.04482189193367958 -0.007285173051059246 0.021308453287929296 -0.061297366046346724 0.028290442423895 0.01128008239902556 0.026194107485935092 0.023766176600474864 -0.004918652703054249 -7.641611471772194 5.381598919630051 -0.3909118892624974 -0.03839833923848346 -0.051454586209729314 0.04838131950236857 -2.98580389469862 0.9908213373273611 -0.11304247425869107 -0.034631676971912384 -0.032347566448152065 0.00808829558081925 -10.238009244203568 0.7150576449930668 -0.06801033800002187 -0.011662779143080115 -0.021780042734462768 -0.03107524069491774 -2.045121341943741 -0.7823528442531824 0.2100161276757717 -0.10113663040101528 -0.012471293593989685 -0.12404562905430794 -33.51501703262329 -33.68949204683304 -29.82735514640808 -21.565676629543304 62.69739747047424 20.75438752770424 -4.89088274538517 -10.553310960531235 -10.594794005155563 -0.06752989254891872 0.061559200985357165 -0.06768492632545531 41.761377453804016 -33.45846265554428 35.02431482076645 20.735178887844086 63.54740560054779 -19.616369158029556 5.219333320856094 -10.362489223480225 13.023660331964493
-0.4391853418201208 -3.7315399646759033 1.6823150292038918 4.41899299621582 14.509082436561584 8.38008999824524 -7.753009647130966 16.719186455011368 4.823906645178795 2.797391787171364 -10.729906260967255 1.3034488074481487 -6.252929270267487 14.238710403442383 -8.424253910779953 9.640559256076813 -25.72537511587143 -14.521915465593338 -0.34288048278540373 -0.13094111694954336 -0.42943147011101246 0.18092407146468759 0.18183929147198796 0.09409550693817437 0.2496896032243967 0.33869671868160367 0.23109288420528173 29.490756690502167 10.266294479370117 41.89535915851593 -20.420109182596207 -23.221798539161682 51.41777515411377 -0.9026046562939882 11.662884503602982 -0.9358971565961838 0.19419555785134435 0.44057621620595455 -0.504346489906311 -0.4309791047126055 -0.05769586132373661 0.0655082194134593 0.3203087719157338 0.1731348317116499 -0.4445380065590143 8.059140890836716 5.665704533457756 0.12199843302369118 -0.0364579024608247 -0.31342622358351946 0.38758226204663515 3.1746743246912956 1.324040461331606 -0.1837879791855812 -0.4088632436469197 0.06481497315689921 -0.5105011118575931 10.266257598996162 1.4155440218746662 0.3955184994265437 -0.24920883821323514 0.2818094124086201 0.14178965706378222 2.3346252366900444 -0.8052812051028013 -0.01919749192893505 -0.022199266240932047 0.40542968083173037 -0.022540854988619685 -74.46632444858551 44.82528626918793 -2.321014702320099 25.247276723384857 -34.335413575172424 -72.99597501754761 5.852115377783775 -25.68217009305954 6.026210188865662 -0.07921008509583771 -0.20419250708073378 0.07380624068900943 -0.3816357208415866 -0.1624814432580024 0.12103819171898067 0.7373723667114973 -0.14439606224186718 0.3472295170649886 -7.642560973763466 5.486610420048237 -0.223014154471457 -0.02922271698480472 -0.5637867981567979 0.31162901781499386 -3.0828847736120224 0.8753602020442486 -0.21846990566700697 -0.5429468723013997 0.13059692457318306 0.20979375578463078 -9.904579818248749 0.29569430742412806 0.08969624410383403 -0.3107176534831524 -0.7656043767929077 -0.009557176963426173 -2.137573566287756 -0.6401365902274847 0.35540325567126274 -0.5175675172358751 0.6312262499704957 0.018985848873853683 -46.098525524139404 -50.993202924728394 -40.981879234313965 -17.240404039621353 64.58075881004333 5.411980301141739 -3.685459792613983 -3.998940959572792 -9.964144974946976 -0.30330704525113106 0.7290995121002197 0.1883956789970398 14.757090210914612 -13.390671014785767 5.864865928888321 19.192539900541306 54.13012146949768 -20.42579010128975 6.428898274898529 -7.756078764796257 20.18115520477295
-0.8653752412647009 -2.3391666412353516 3.0982814207673073 -3.434135466814041 22.69422948360443 12.244276106357574 -10.499629899859428 17.647570073604584 3.418285623192787 1.9238759391009808 -12.38997370004654 -0.06981429643929005 -6.309278458356857 13.351023942232132 -9.294526129961014 6.869971454143524 -27.35157161951065 -14.680802822113037 -0.4097986640408635 -0.3686536196619272 -0.4107644269242883 -0.22744512185454369 0.2593408618122339 -0.12000216753222048 -0.05987106473185122 0.44025762006640434 0.07029510335996747 26.162534952163696 -3.496103882789612 48.428093791007996 -16.52509778738022 -13.935441076755524 36.82221293449402 -2.040659822523594 21.351484805345535 1.3292196393013 0.42660949286073446 0.7464311923831701 -0.14656386338174343 -0.5654538329690695 0.003831640351563692 0.023623189190402627 0.6050952896475792 -0.127873329911381 0.20884274505078793 8.32275241613388 6.022759526968002 0.3524462040513754 0.36840098910033703 -0.47051746398210526 0.627115429379046 3.0632469803094864 1.4999804645776749 -0.6346689071506262 -0.5856074905022979 0.07771983509883285 -0.8323425985872746 10.92922255396843 0.6948355492204428 -0.045811207965016365 -0.06078542035538703 0.26711474172770977 0.2787809679284692 2.4206877686083317 -1.3571229949593544 0.1893475279211998 0.109914526110515 0.633910596370697 0.5006737494841218 -101.17739796638489 52.158043384552 33.1353422999382 26.734601855278015 -35.72786629199982 -76.69999837875366 8.950544223189354 -39.8234760761261 9.984171018004417 -0.14975669793784618 -0.5289031192660332 0.2190729626454413 -0.4675419721752405 -0.07880236837081611 0.05355861154384911 0.2735370397567749 -0.2602913905866444 0.1953467703424394 -8.162090107798576 6.067705303430557 -0.29993881937116385 -0.0022888744570082054 -0.5970972357317805 0.13295950018800795 -3.2687323540449142 1.1491440050303936 -0.2787167625501752 -1.2847870029509068 0.08933687000535429 0.2850143797695637 -10.438069850206375 0.7250156812369823 0.21964817075058818 -0.21012672688812017 -0.5259834928438067 0.18410424934700131 -2.778031937777996 -0.825249832123518 0.023562200367450714 -0.41606107726693153 0.32368690939620137 -0.4715572390705347 -48.04179668426514 -63.74120056629181 -43.80991995334625 -3.687145560979843 72.01830983161926 -10.328619629144669 -3.6210599541664124 -2.0525383204221725 -8.244592845439911 -0.660567688755691 0.27782727498561144 0.31995308585464954 7.6448871195316315 -2.5874465703964233 -6.597080826759338 32.355996966362 47.7918416261673 -29.56283301115036 5.150336176156998 -6.633942425251007 20.481149554252625
